<?xml version="1.0" encoding="UTF-8" standalone="no"?>
<!-- Created with Inkscape (http://www.inkscape.org/) -->

<svg
   width="146.46393mm"
   height="142.5574mm"
   viewBox="0 0 146.46393 142.5574"
   version="1.1"
   id="svg5"
   inkscape:version="1.1 (c4e8f9e, 2021-05-24)"
   sodipodi:docname="play.svg"
   inkscape:export-filename="/Users/xingyang/bitmap.png"
   inkscape:export-xdpi="96"
   inkscape:export-ydpi="96"
   xmlns:inkscape="http://www.inkscape.org/namespaces/inkscape"
   xmlns:sodipodi="http://sodipodi.sourceforge.net/DTD/sodipodi-0.dtd"
   xmlns="http://www.w3.org/2000/svg"
   xmlns:svg="http://www.w3.org/2000/svg">
  <sodipodi:namedview
     id="namedview7"
     pagecolor="#ffffff"
     bordercolor="#111111"
     borderopacity="1"
     inkscape:pageshadow="0"
     inkscape:pageopacity="0"
     inkscape:pagecheckerboard="1"
     inkscape:document-units="mm"
     showgrid="false"
     showguides="true"
     inkscape:guide-bbox="true"
     inkscape:zoom="0.53921223"
     inkscape:cx="136.30996"
     inkscape:cy="309.71107"
     inkscape:window-width="1920"
     inkscape:window-height="936"
     inkscape:window-x="1440"
     inkscape:window-y="25"
     inkscape:window-maximized="1"
     inkscape:current-layer="layer1"
     inkscape:lockguides="true">
    <sodipodi:guide
       position="60.540299,139.1067"
       orientation="1,0"
       id="guide2184"
       inkscape:locked="true" />
  </sodipodi:namedview>
  <defs
     id="defs2" />
  <g
     inkscape:label="Layer 1"
     inkscape:groupmode="layer"
     id="layer1"
     transform="translate(-27.459699,-82.585008)">
    <g
       id="g5052"
       transform="translate(-9.4285722,21.607143)">
      <path
         sodipodi:type="star"
         style="fill:#e6e6e6;fill-opacity:1;fill-rule:evenodd;stroke:#d3d3d3;stroke-width:11.9793;stroke-linecap:butt;stroke-linejoin:round;stroke-miterlimit:4;stroke-dasharray:none;stroke-dashoffset:1.94869;stroke-opacity:1;paint-order:fill markers stroke"
         id="path33"
         inkscape:flatsided="false"
         sodipodi:sides="3"
         sodipodi:cx="111.36108"
         sodipodi:cy="164.81441"
         sodipodi:r1="79.378571"
         sodipodi:r2="39.689285"
         sodipodi:arg1="-1.7021118"
         sodipodi:arg2="-0.65491421"
         inkscape:rounded="0"
         inkscape:randomized="0"
         d="m 100.96737,86.119246 41.87129,54.520764 41.87128,54.52077 -68.15201,9.00121 -68.152011,9.00121 26.280728,-63.52198 z"
         transform="matrix(-0.43806056,-0.33614117,0.33614117,-0.43806056,104.20112,241.87029)"
         inkscape:transform-center-x="-10.949803"
         inkscape:transform-center-y="0.0089374151" />
      <path
         style="fill:#e6e6e6;fill-opacity:1;stroke:#d3d3d3;stroke-width:37.1204;stroke-linecap:butt;stroke-linejoin:round;stroke-miterlimit:4;stroke-dasharray:none;stroke-dashoffset:0;stroke-opacity:1;paint-order:fill markers stroke"
         d="m 348.93138,500.34469 c 0,-105.14496 0.27737,-120.44349 2.17049,-119.71703 1.71918,0.65971 205.53102,117.8556 206.7756,118.9001 0.18131,0.15217 -3.15953,2.29215 -7.42408,4.75552 -4.26455,2.46337 -49.18005,28.40067 -99.81222,57.63845 -50.63217,29.23776 -94.23003,54.46758 -96.88414,56.06623 l -4.82565,2.90666 z"
         id="path4811"
         transform="scale(0.26458333)" />
      <path
         style="fill:#e6e6e6;fill-opacity:1;stroke:#d3d3d3;stroke-width:37.1204;stroke-linecap:butt;stroke-linejoin:round;stroke-miterlimit:4;stroke-dasharray:none;stroke-dashoffset:0;stroke-opacity:1;paint-order:fill markers stroke"
         d="m 368.23397,499.55242 c 0,-47.8221 0.50113,-86.68447 1.11361,-86.36082 21.04107,11.1185 150.09186,86.49388 149.27708,87.18906 -1.98928,1.69728 -148.53137,86.12103 -149.4882,86.12103 -0.49637,0 -0.90249,-39.12718 -0.90249,-86.94927 z"
         id="path4850"
         transform="scale(0.26458333)" />
      <path
         style="fill:#e6e6e6;fill-opacity:1;stroke:#d3d3d3;stroke-width:37.1204;stroke-linecap:butt;stroke-linejoin:round;stroke-miterlimit:4;stroke-dasharray:none;stroke-dashoffset:0;stroke-opacity:1;paint-order:fill markers stroke"
         d="m 387.53656,499.71898 v -54.33473 l 7.19907,4.11327 c 45.07987,25.75692 85.99979,50.33238 85.16154,51.14584 -0.86234,0.83683 -49.74119,29.14725 -83.82293,48.54988 l -8.53768,4.86047 z"
         id="path4889"
         transform="scale(0.26458333)" />
      <path
         style="fill:#e6e6e6;fill-opacity:1;stroke:#d3d3d3;stroke-width:37.1204;stroke-linecap:butt;stroke-linejoin:round;stroke-miterlimit:4;stroke-dasharray:none;stroke-dashoffset:0;stroke-opacity:1;paint-order:fill markers stroke"
         d="m 406.83915,500.27065 c 0,-11.37158 0.40031,-20.6756 0.88958,-20.6756 0.48927,0 8.50727,4.48245 17.81777,9.961 15.35633,9.03608 19.48604,12.31122 15.52353,12.31122 -0.77257,0 -8.79056,4.29277 -17.81777,9.53949 l -16.41311,9.53949 z"
         id="path4928"
         transform="scale(0.26458333)" />
    </g>
    <ellipse
       style="fill:#e6e6e6;fill-opacity:0.0283401;stroke:#d3d3d3;stroke-width:6.61458;stroke-linecap:butt;stroke-linejoin:round;stroke-miterlimit:4;stroke-dasharray:none;stroke-dashoffset:0;stroke-opacity:1;paint-order:fill markers stroke"
       id="path5156"
       cx="108.72541"
       cy="148.29578"
       rx="69.928574"
       ry="67.964287"
       transform="rotate(3.046016)" />
  </g>
</svg>
